<?xml version="1.0" encoding="iso-8859-1"?>
<!-- Generator: Adobe Illustrator 19.0.0, SVG Export Plug-In . SVG Version: 6.00 Build 0)  -->
<svg version="1.1" id="Capa_1" xmlns="http://www.w3.org/2000/svg" xmlns:xlink="http://www.w3.org/1999/xlink" x="0px" y="0px"
	 viewBox="0 0 512 512" style="enable-background:new 0 0 512 512;" xml:space="preserve">
<g>
	<g>
		<path d="M256,210c-66.301,0-112.2,11.1-135,18.6V270c42.744,0,270,0,270,0v-41.4C368.2,221.1,322.301,210,256,210z"/>
	</g>
</g>
<g>
	<g>
		<path d="M123.564,300c6.196,17.461,22.88,30,42.436,30c19.556,0,36.24-12.539,42.437-30H123.564z"/>
	</g>
</g>
<g>
	<g>
		<path d="M303.564,300c6.196,17.461,22.88,30,42.436,30c19.556,0,36.24-12.539,42.437-30H303.564z"/>
	</g>
</g>
<g>
	<g>
		<path d="M391,344.617C378.426,354.135,362.948,360,346,360c-36.216,0-66.513-25.809-73.482-60h-33.036
			c-6.969,34.191-37.266,60-73.482,60c-16.948,0-32.426-5.865-45-15.383V375c0,19.955,1.93,15.463,0.901,16.5
			c6.088,39.662,24.084,73.131,59.099,97.125V390h150v98.625c34.596-23.708,52.906-56.783,59.099-97.125
			C389.07,390.463,391,394.955,391,375V344.617z"/>
	</g>
</g>
<g>
	<g>
		<path d="M211,420v84.181c14.506,5.256,31.236,7.819,45,7.819c13.667,0,30.504-2.565,45-7.819V420H211z"/>
	</g>
</g>
<g>
	<g>
		<path d="M436,270h-15v90h15c24.853,0,45-20.147,45-45C481,290.147,460.853,270,436,270z"/>
	</g>
</g>
<g>
	<g>
		<path d="M76,270c-24.853,0-45,20.147-45,45c0,24.853,20.147,45,45,45h15v-90H76z"/>
	</g>
</g>
<g>
	<g>
		<path d="M402.426,70.679C394.237,29.722,357.982,0,316.205,0C293.969,0,272.187,8.657,256,23.848
			C239.813,8.657,218.031,0,195.795,0c-41.777,0-78.032,29.722-86.221,70.679l-7.738,38.672C148.777,96.341,203.123,90,256,90
			s107.223,6.341,154.164,19.351L402.426,70.679z"/>
	</g>
</g>
<g>
	<g>
		<path d="M256,120C132.382,120,0,156.797,0,225c0,11.054,5.028,25.765,19.688,40.997C33.448,250.204,53.46,240,76,240h15v-32.432
			C131.406,194.515,170.378,180,256,180c85.243,0,124.508,14.487,165,27.568V240h15c22.54,0,42.552,10.204,56.312,25.997
			C506.972,250.765,512,236.054,512,225C512,156.797,379.618,120,256,120z"/>
	</g>
</g>
<g>
</g>
<g>
</g>
<g>
</g>
<g>
</g>
<g>
</g>
<g>
</g>
<g>
</g>
<g>
</g>
<g>
</g>
<g>
</g>
<g>
</g>
<g>
</g>
<g>
</g>
<g>
</g>
<g>
</g>
</svg>
